<?xml version="1.0" encoding="utf-8"?>
<!-- Generator: Adobe Illustrator 15.0.0, SVG Export Plug-In . SVG Version: 6.00 Build 0)  -->
<!DOCTYPE svg PUBLIC "-//W3C//DTD SVG 1.1//EN" "http://www.w3.org/Graphics/SVG/1.1/DTD/svg11.dtd">
<svg version="1.1" id="Layer_1" xmlns="http://www.w3.org/2000/svg" xmlns:xlink="http://www.w3.org/1999/xlink" x="0px" y="0px"
	 width="18px" height="18px" viewBox="0 0 18 18" enable-background="new 0 0 18 18" xml:space="preserve">
<g>
	<g>
		<g>
			<path fill="#F24E4E" d="M8.292,8.995L2.293,2.999c-3.056,3.41-3.058,8.579-0.001,11.991L8.292,8.995z"/>
		</g>
	</g>
	<g>
		<path fill="#0957C3" d="M9,9.702l-6,5.996C4.708,17.227,6.851,18,9,18c2.017,0,4.036-0.674,5.687-2.021
			c0.108-0.088,0.208-0.188,0.312-0.282L9,9.702z"/>
	</g>
	<g>
		<g>
			<path fill="#4EB50B" d="M9.708,8.995l6,5.996c3.057-3.412,3.057-8.581,0-11.991L9.708,8.995z"/>
		</g>
	</g>
	<g>
		<g>
			<path fill="#FFCE43" d="M9,8.287l6-5.996C11.587-0.763,6.414-0.764,3.001,2.292L9,8.287z"/>
		</g>
	</g>
</g>
</svg>
