<?xml version="1.0" encoding="utf-8"?>
<!-- Generator: Adobe Illustrator 15.0.0, SVG Export Plug-In . SVG Version: 6.00 Build 0)  -->
<!DOCTYPE svg PUBLIC "-//W3C//DTD SVG 1.1//EN" "http://www.w3.org/Graphics/SVG/1.1/DTD/svg11.dtd">
<svg version="1.1" id="Layer_1" xmlns="http://www.w3.org/2000/svg" xmlns:xlink="http://www.w3.org/1999/xlink" x="0px" y="0px"
	 width="28px" height="18px" viewBox="-5 0 28 18" enable-background="new -5 0 28 18" xml:space="preserve">
<g>
	<g>
		<rect x="-5" fill="#FFFFFF" width="28" height="18"/>
	</g>
	<rect x="-5" fill="#1E68C1" width="28" height="18"/>
	<g>
		<defs>
			<rect id="SVGID_1_" x="-5" width="28" height="18"/>
		</defs>
		<clipPath id="SVGID_2_">
			<use xlink:href="#SVGID_1_"  overflow="visible"/>
		</clipPath>
		<g clip-path="url(#SVGID_2_)">
			<polygon fill="#FFFFFF" points="23,12 23,6 16.441,6 23.812,1.262 22.188,-1.262 12,5.287 12,0 6,0 6,5.287 -4.188,-1.262 
				-5.812,1.262 1.559,6 -5,6 -5,12 1.559,12 -5.812,16.738 -4.188,19.262 6,12.711 6,18 12,18 12,12.711 22.188,19.262 
				23.812,16.738 16.441,12 			"/>
			<polygon fill="#D85050" points="23,10.5 23,7.5 12.258,7.5 23.271,0.42 22.729,-0.421 10.5,7.441 10.5,0 7.5,0 7.5,7.441 
				-4.729,-0.421 -5.271,0.42 5.742,7.5 -5,7.5 -5,10.5 5.742,10.5 -5.271,17.579 -4.729,18.42 7.5,10.559 7.5,18 10.5,18 
				10.5,10.559 22.729,18.42 23.271,17.579 12.258,10.5 			"/>
		</g>
	</g>
</g>
</svg>
