<?xml version="1.0" encoding="utf-8"?>
<!-- Generator: Adobe Illustrator 15.0.0, SVG Export Plug-In . SVG Version: 6.00 Build 0)  -->
<!DOCTYPE svg PUBLIC "-//W3C//DTD SVG 1.1//EN" "http://www.w3.org/Graphics/SVG/1.1/DTD/svg11.dtd">
<svg version="1.1" id="Layer_1" xmlns="http://www.w3.org/2000/svg" xmlns:xlink="http://www.w3.org/1999/xlink" x="0px" y="0px"
	 width="18px" height="18px" viewBox="0 0 18 18" enable-background="new 0 0 18 18" xml:space="preserve">
<g>
	<path fill="#F7931E" d="M5.18,5.181L2.635,2.637c-3.514,3.513-3.514,9.212,0,12.728l2.545-2.546
		C3.072,10.711,3.072,7.29,5.18,5.181z"/>
	<path fill="#F24E4E" d="M12.818,12.818c-2.109,2.109-5.528,2.108-7.638,0l-2.545,2.546c3.516,3.515,9.214,3.515,12.73,0
		L12.818,12.818z"/>
	<path fill="#4197F5" d="M15.365,2.637l-2.546,2.544c2.108,2.109,2.108,5.528-0.001,7.637l2.547,2.546
		C18.879,11.849,18.879,6.15,15.365,2.637z"/>
	<path fill="#8CC63F" d="M2.635,2.637L5.18,5.181l0,0c2.11-2.107,5.528-2.107,7.638,0c0,0,0.001,0.001,0.001,0.001l2.546-2.544
		C11.85-0.879,6.151-0.879,2.635,2.637z"/>
</g>
</svg>
