<?xml version="1.0" encoding="utf-8"?>
<!-- Generator: Adobe Illustrator 15.0.0, SVG Export Plug-In . SVG Version: 6.00 Build 0)  -->
<!DOCTYPE svg PUBLIC "-//W3C//DTD SVG 1.1//EN" "http://www.w3.org/Graphics/SVG/1.1/DTD/svg11.dtd">
<svg version="1.1" id="Layer_1" xmlns="http://www.w3.org/2000/svg" xmlns:xlink="http://www.w3.org/1999/xlink" x="0px" y="0px"
	 width="18px" height="18px" viewBox="0 0 18 18" enable-background="new 0 0 18 18" xml:space="preserve">
<g>
	<g>
		<circle fill="#343A44" cx="9" cy="9" r="9"/>
	</g>
	<g>
		<g>
			<path fill="#FFFFFF" d="M5.259,10.906c0.312-0.311,0.681-0.467,1.107-0.467s0.796,0.156,1.107,0.467
				c0.312,0.312,0.467,0.681,0.467,1.107c0,0.574-0.205,1.066-0.615,1.477c-0.409,0.411-0.901,0.615-1.477,0.615
				c-0.853,0-1.55-0.353-2.092-1.058c0.246,0,0.48-0.095,0.702-0.283c0.221-0.188,0.332-0.439,0.332-0.751
				C4.791,11.587,4.947,11.218,5.259,10.906z M13.577,5.517c0.098,0.098,0.147,0.221,0.147,0.369c0,0.147-0.05,0.271-0.147,0.369
				l-4.701,4.701L7.425,9.504l4.7-4.701c0.099-0.098,0.222-0.147,0.369-0.147s0.271,0.05,0.369,0.147L13.577,5.517z"/>
		</g>
	</g>
</g>
</svg>
