<?xml version="1.0" standalone="no"?>
<!DOCTYPE svg PUBLIC "-//W3C//DTD SVG 20010904//EN"
 "http://www.w3.org/TR/2001/REC-SVG-20010904/DTD/svg10.dtd">
<svg version="1.0" xmlns="http://www.w3.org/2000/svg"
 width="852.000000pt" height="852.000000pt" viewBox="0 0 852.000000 852.000000"
 preserveAspectRatio="xMidYMid meet">
<metadata>
Created by potrace 1.11, written by Peter Selinger 2001-2013
</metadata>
<g transform="translate(0.000000,852.000000) scale(0.100000,-0.100000)"
fill="#000000" stroke="none">
<path d="M4348 8065 c-2 -2 -49 -6 -105 -9 -56 -4 -112 -9 -125 -11 -13 -2
-48 -6 -78 -9 -30 -4 -66 -8 -80 -11 -14 -2 -52 -9 -85 -14 -590 -99 -1081
-336 -1448 -699 -49 -48 -112 -116 -140 -152 -29 -36 -58 -71 -65 -79 -32 -33
-134 -196 -190 -301 -119 -224 -215 -517 -247 -750 -3 -25 -8 -52 -10 -60 -2
-8 -7 -47 -10 -86 -3 -39 -8 -86 -11 -105 -6 -46 -6 -5057 0 -5089 19 -89 97
-183 185 -224 45 -21 54 -21 751 -23 699 -2 705 -1 759 20 65 25 138 95 172
164 l24 48 5 1020 5 1020 23 49 c12 27 36 66 52 86 58 73 19 70 784 70 639 1
690 2 745 19 72 22 148 76 191 134 64 88 64 79 65 842 0 380 -3 714 -8 744
-16 110 -70 185 -167 230 l-55 26 -760 5 c-681 4 -763 7 -790 21 -31 18 -52
39 -72 75 -18 34 -17 569 2 657 41 195 186 349 381 403 53 15 174 17 1224 18
l1165 2 63 34 c98 52 156 114 189 202 14 38 16 125 17 743 2 732 1 758 -42
841 -31 61 -104 116 -171 129 -9 2 -34 8 -56 13 -27 7 -380 11 -1062 10 -563
-1 -1024 -2 -1025 -3z"/>
<path d="M5290 1948 c-63 -110 -126 -222 -140 -247 -14 -25 -35 -62 -46 -81
-12 -19 -33 -55 -46 -80 -14 -25 -51 -90 -83 -145 -32 -55 -69 -120 -83 -145
-45 -82 -252 -445 -262 -460 -5 -8 -32 -55 -60 -105 -27 -49 -63 -112 -79
-140 -17 -27 -37 -62 -45 -77 l-14 -28 989 0 c544 0 989 3 989 6 0 3 -38 69
-84 147 -46 78 -92 156 -102 174 -76 130 -119 203 -136 233 -11 19 -43 73 -71
120 -27 47 -58 99 -67 115 -16 27 -85 146 -144 246 -11 20 -104 179 -206 353
-102 174 -187 316 -190 316 -3 0 -57 -91 -120 -202z"/>
</g>
</svg>
