<?xml version="1.0" encoding="utf-8"?>
<!-- Generator: Adobe Illustrator 22.1.0, SVG Export Plug-In . SVG Version: 6.00 Build 0)  -->
<svg version="1.1" id="Layer_1" xmlns="http://www.w3.org/2000/svg" xmlns:xlink="http://www.w3.org/1999/xlink" x="0px" y="0px"
	 viewBox="0 0 40 40" style="enable-background:new 0 0 40 40;" xml:space="preserve">
<style type="text/css">
	.st0{fill:#FFFFFF;}
</style>
<path class="st0" d="M37.1,0c0.8,0,1.4,0.3,2,0.8s0.8,1.2,0.8,2v34.3c0,0.8-0.3,1.4-0.8,2s-1.2,0.8-2,0.8H2.9c-0.8,0-1.4-0.3-2-0.8
	S0,37.9,0,37.1V2.9c0-0.8,0.3-1.4,0.8-2S2.1,0,2.9,0H37.1z M9.1,12.6c1,0,1.8-0.3,2.5-1s1-1.5,1-2.4s-0.3-1.7-1-2.4s-1.5-1-2.5-1
	c-1,0-1.8,0.3-2.4,1s-1,1.5-1,2.4s0.3,1.7,1,2.4S8.2,12.6,9.1,12.6z M12.1,34.3L12.1,34.3l0.1-19.1h-6v19.1H12.1z M34.3,34.3V23.8
	c0-3-0.4-5.1-1.2-6.5c-1.1-1.7-3.1-2.6-5.8-2.6c-1.4,0-2.6,0.3-3.7,1c-0.9,0.5-1.5,1.2-2,2.1h-0.1v-2.6h-5.7v19.1h5.9v-9.5
	c0-1.5,0.2-2.6,0.6-3.4c0.6-1,1.6-1.5,2.9-1.5c1.4,0,2.3,0.6,2.7,1.7c0.3,0.7,0.4,1.8,0.4,3.4v9.3H34.3z"/>
</svg>
