<?xml version="1.0" encoding="utf-8"?>
<!-- Generator: Adobe Illustrator 22.1.0, SVG Export Plug-In . SVG Version: 6.00 Build 0)  -->
<svg version="1.1" id="Layer_1" xmlns="http://www.w3.org/2000/svg" xmlns:xlink="http://www.w3.org/1999/xlink" x="0px" y="0px"
	 viewBox="0 0 40 40" style="enable-background:new 0 0 40 40;" xml:space="preserve">
<style type="text/css">
	.st0{fill:#FFFFFF;}
</style>
<g>
	<path class="st0" d="M39.2,0.8c-0.6-0.6-1.2-0.8-2-0.8H2.9c-0.8,0-1.4,0.3-2,0.8C0.3,1.4,0,2.1,0,2.9v34.3c0,0.8,0.3,1.4,0.8,2
		c0.6,0.6,1.2,0.8,2,0.8h34.3c0.8,0,1.4-0.3,2-0.8c0.6-0.6,0.8-1.2,0.8-2V2.9C40,2.1,39.7,1.4,39.2,0.8z M33,22.4
		c-0.1,1.8-0.3,3.1-0.5,4c-0.2,0.5-0.4,1-0.9,1.4c-0.4,0.4-0.9,0.7-1.5,0.9c-0.8,0.2-2.8,0.4-5.8,0.5l-4.3,0l-4.3,0
		c-3-0.1-5-0.3-5.8-0.5c-0.6-0.2-1.1-0.4-1.5-0.9c-0.4-0.4-0.7-0.9-0.9-1.4c-0.2-0.9-0.4-2.2-0.5-4L7,20c0-0.7,0-1.5,0-2.4
		c0.1-1.7,0.3-3,0.5-3.9c0.2-0.6,0.4-1.1,0.9-1.5c0.4-0.4,0.9-0.7,1.5-0.9c0.8-0.2,2.8-0.4,5.8-0.5l4.3,0l4.3,0c3,0.1,5,0.3,5.8,0.5
		c0.6,0.2,1.1,0.4,1.5,0.9c0.4,0.4,0.7,0.9,0.9,1.5c0.2,0.9,0.4,2.2,0.5,3.9l0,2.4L33,22.4z"/>
	<polygon class="st0" points="17.3,23.9 24.1,20 17.3,16.1 	"/>
</g>
</svg>
