<?xml version="1.0" encoding="utf-8"?>
<!-- Generator: Adobe Illustrator 22.1.0, SVG Export Plug-In . SVG Version: 6.00 Build 0)  -->
<svg version="1.1" id="Layer_1" xmlns="http://www.w3.org/2000/svg" xmlns:xlink="http://www.w3.org/1999/xlink" x="0px" y="0px"
	 viewBox="0 0 40 40" style="enable-background:new 0 0 40 40;" xml:space="preserve">
<style type="text/css">
	.st0{fill:#FFFFFF;}
</style>
<path class="st0" d="M40,37.8c0,0.6-0.2,1.1-0.6,1.6c-0.4,0.4-1,0.7-1.6,0.7H27.6V24.5h5.2l0.8-6h-6v-3.8c0-1,0.2-1.7,0.5-2.1
	c0.5-0.5,1.3-0.8,2.4-0.8h3.2V6.2c-1.2-0.1-2.8-0.2-4.6-0.2c-2.3,0-4.2,0.7-5.6,2.1s-2.1,3.3-2.1,5.9v4.5h-5.2v6h5.2V40H2.2
	c-0.7,0-1.2-0.2-1.6-0.7c-0.4-0.4-0.6-1-0.6-1.6V2.2C0,1.6,0.2,1,0.6,0.6S1.6,0,2.2,0h35.5c0.6,0,1.1,0.2,1.6,0.6
	C39.8,1,40,1.6,40,2.2V37.8z"/>
</svg>
